<?xml version="1.0" standalone="no"?>
<!DOCTYPE svg PUBLIC "-//W3C//DTD SVG 20010904//EN"
 "http://www.w3.org/TR/2001/REC-SVG-20010904/DTD/svg10.dtd">
<svg version="1.0" xmlns="http://www.w3.org/2000/svg"
 width="1257.000000pt" height="839.000000pt" viewBox="0 0 1257.000000 839.000000"
 preserveAspectRatio="xMidYMid meet">
<metadata>
Created by potrace 1.16, written by Peter Selinger 2001-2019
</metadata>
<g transform="translate(0.000000,839.000000) scale(0.100000,-0.100000)"
fill="#000000" stroke="none">
<path d="M0 4195 l0 -4195 2854 0 2854 0 -1 51 c-2 49 -4 52 -37 63 -50 16
-50 42 0 93 44 46 50 78 24 118 -11 16 -14 36 -11 55 4 19 1 34 -8 43 -9 9
-13 37 -13 81 0 59 3 69 24 82 30 20 60 14 56 -11 -12 -72 -20 -152 -16 -165
4 -15 48 -40 69 -40 17 0 45 -34 45 -53 0 -9 -8 -21 -18 -26 -14 -8 -23 -5
-36 10 -31 37 -39 13 -31 -100 4 -64 12 -112 20 -121 7 -8 15 -24 17 -35 2
-12 10 -19 21 -17 10 2 17 -4 17 -13 0 -13 148 -15 1430 -15 947 0 1430 3
1430 10 0 6 7 10 15 10 8 0 15 -4 15 -10 0 -5 9 -10 21 -10 19 0 19 1 5 16
-21 21 -21 74 0 74 34 0 54 -20 54 -55 l0 -35 1885 0 1885 0 0 4195 0 4195
-6285 0 -6285 0 0 -4195z m6085 2715 c8 0 16 -8 19 -17 6 -19 49 -43 77 -43 9
0 20 7 23 16 4 11 13 14 30 10 15 -4 28 0 36 9 20 24 68 18 94 -12 22 -25 25
-26 55 -14 17 8 31 17 31 22 0 5 9 9 19 9 11 0 23 5 26 10 7 11 48 14 58 4 11
-11 -5 -34 -24 -34 -10 0 -19 -7 -19 -15 0 -9 9 -15 23 -15 16 0 28 -9 35 -25
8 -16 20 -25 34 -25 19 0 20 2 8 10 -16 10 -23 100 -8 100 4 0 8 -6 8 -14 0
-9 13 -13 42 -12 25 0 43 -4 46 -12 2 -6 16 -12 31 -12 14 0 34 -9 43 -19 15
-18 28 -20 120 -17 57 2 108 0 113 -4 6 -5 21 -10 35 -12 19 -2 26 -10 28 -30
2 -19 9 -28 21 -28 25 0 65 -45 57 -66 -4 -10 -13 -14 -26 -11 -21 6 -26 -8
-10 -33 8 -13 13 -12 40 3 17 11 38 16 46 13 27 -10 29 25 3 45 -23 17 -23 19
-6 36 17 17 19 17 31 1 7 -10 21 -18 30 -18 9 0 16 -5 16 -11 0 -7 11 -8 29
-4 24 5 33 2 46 -18 19 -29 65 -41 100 -25 30 14 52 -2 57 -40 3 -26 20 -34
97 -47 13 -2 28 -8 34 -14 5 -5 22 -7 37 -5 21 5 32 0 49 -23 15 -18 32 -28
49 -28 22 0 27 -5 28 -25 1 -14 3 -32 5 -40 3 -11 -3 -14 -21 -13 -68 5 -92
11 -111 31 -11 12 -27 22 -37 22 -10 0 -13 -3 -6 -8 6 -4 17 -20 25 -37 8 -16
20 -31 27 -31 6 -1 17 -2 23 -3 6 0 9 -10 6 -21 -6 -24 24 -28 43 -5 18 22 32
18 30 -7 -5 -59 -4 -61 49 -54 52 7 61 0 61 -45 0 -12 10 -23 25 -29 14 -5 25
-14 25 -20 0 -6 13 -1 29 11 33 24 61 20 61 -10 0 -11 12 -29 28 -40 15 -12
32 -25 38 -30 6 -5 17 -30 25 -55 12 -42 16 -46 44 -46 34 0 55 -15 55 -40 0
-8 9 -21 20 -28 11 -7 20 -19 20 -27 0 -8 11 -22 25 -31 14 -9 29 -33 35 -53
5 -21 23 -51 40 -67 16 -16 30 -36 30 -44 0 -8 9 -28 20 -45 11 -16 20 -38 20
-47 0 -9 6 -21 14 -25 8 -4 16 -19 18 -33 1 -14 14 -30 27 -37 42 -21 65 -85
40 -110 -6 -6 -17 -9 -24 -6 -8 2 -25 -3 -39 -12 -21 -14 -29 -15 -41 -5 -8 7
-15 22 -15 33 0 20 -1 20 -13 2 -16 -20 -37 -13 -37 13 0 21 -31 50 -47 45
-21 -7 -25 18 -8 54 14 28 15 41 6 55 -18 29 -13 38 22 39 20 1 25 3 12 6 -11
3 -28 15 -37 26 -15 18 -18 19 -18 5 0 -28 -22 -33 -42 -8 -25 30 -23 50 5 50
23 0 47 17 47 32 0 4 -11 8 -24 8 -26 0 -76 39 -76 59 0 6 -4 11 -10 11 -15 0
-12 -44 5 -76 8 -16 15 -38 15 -49 0 -12 4 -25 9 -30 6 -6 13 -28 16 -50 5
-32 3 -45 -14 -64 -12 -13 -21 -25 -21 -27 0 -1 27 -21 61 -43 81 -54 102 -81
89 -115 -5 -14 -14 -26 -20 -26 -5 0 -10 -4 -10 -8 0 -4 23 -7 50 -6 49 3 55
-1 51 -33 -3 -25 25 -12 44 19 22 37 64 77 83 78 13 0 22 -18 43 -88 7 -24 21
-48 31 -53 31 -17 84 -154 67 -175 -6 -8 -6 -20 2 -38 10 -20 10 -29 1 -38 -9
-9 -6 -22 14 -56 14 -24 23 -50 20 -58 -6 -15 -36 -20 -36 -6 0 11 -51 35 -58
27 -3 -2 2 -13 11 -23 16 -18 16 -20 -3 -37 -26 -24 -25 -35 3 -35 34 0 56
-29 63 -84 4 -25 11 -49 15 -52 5 -3 9 -16 9 -30 0 -16 -6 -24 -18 -24 -10 0
-27 -7 -38 -15 -10 -8 -27 -15 -36 -15 -24 0 -24 38 0 48 13 5 16 14 12 32 -5
25 -6 25 -58 17 -56 -9 -73 -27 -52 -52 7 -9 15 -32 17 -53 2 -20 5 -48 6 -62
2 -14 7 -33 11 -43 5 -11 4 -23 -2 -29 -6 -6 -8 -17 -5 -24 7 -19 33 -18 33 2
0 24 39 74 58 74 11 0 21 -13 28 -35 9 -29 8 -35 -3 -35 -8 0 -27 -7 -43 -15
-22 -11 -30 -23 -30 -42 0 -25 1 -25 18 -10 38 34 92 13 69 -27 -6 -12 -12
-30 -12 -41 0 -11 -8 -21 -17 -23 -13 -2 -18 3 -18 17 0 23 -4 26 -48 36 -24
5 -33 3 -38 -9 -8 -21 49 -79 64 -64 16 16 32 0 32 -32 0 -18 -10 -39 -28 -57
-16 -15 -31 -35 -35 -43 -5 -13 -8 -12 -18 4 -6 10 -14 14 -18 9 -3 -6 -23
-13 -45 -16 -32 -5 -39 -3 -43 13 -3 12 -14 20 -27 20 -30 0 -34 -6 -28 -35 3
-18 11 -25 28 -25 18 0 24 -6 25 -22 1 -17 2 -19 6 -5 2 9 8 17 11 18 42 6 92
6 92 0 0 -4 -10 -17 -23 -29 -17 -16 -26 -19 -34 -11 -15 15 -33 3 -33 -21 0
-32 -95 -117 -149 -135 -12 -3 -21 -11 -21 -16 0 -5 -13 -9 -29 -9 -32 0 -47
-25 -36 -59 3 -12 0 -21 -10 -25 -8 -3 -15 -11 -15 -19 0 -7 -13 -40 -29 -73
-15 -32 -34 -76 -40 -96 -7 -21 -16 -38 -21 -38 -5 0 -11 -9 -15 -19 -3 -11
-15 -23 -26 -26 -11 -4 -25 -16 -30 -28 -14 -28 -150 -118 -202 -134 -47 -14
-179 -28 -223 -24 -18 1 -35 -2 -38 -7 -3 -5 7 -7 22 -6 15 2 21 1 13 -2 -45
-21 -74 -107 -43 -130 17 -12 8 -54 -12 -54 -18 0 -35 21 -29 36 4 10 -3 14
-23 14 -23 0 -40 -13 -84 -67 -68 -81 -114 -132 -105 -115 4 8 -3 12 -24 12
-17 0 -31 -5 -31 -11 0 -7 -8 -18 -17 -25 -16 -12 -14 -13 20 -14 35 0 37 -1
37 -34 0 -37 -22 -52 -66 -47 -13 1 -24 -7 -32 -23 -12 -26 -51 -43 -77 -32
-9 3 -15 0 -15 -8 0 -7 -11 -25 -25 -40 -21 -22 -32 -26 -82 -26 -57 0 -60 -1
-91 -42 -28 -37 -32 -48 -27 -86 3 -28 0 -51 -9 -65 -19 -30 -31 -123 -17
-132 15 -9 14 -40 -3 -54 -11 -9 -18 -8 -30 4 -20 20 -20 39 -1 55 17 14 21
115 5 125 -15 9 -12 41 5 55 24 20 19 75 -10 106 -32 34 -124 54 -228 49 -74
-4 -78 -4 -72 15 9 28 -20 37 -45 15 -25 -23 -77 -8 -72 21 5 24 31 54 48 54
7 0 18 9 24 21 16 28 42 131 35 137 -3 3 -5 -3 -5 -14 -1 -18 -1 -18 -14 -1
-12 16 -15 16 -29 2 -9 -8 -22 -15 -29 -15 -7 0 -28 -14 -46 -31 -32 -30 -57
-34 -33 -5 14 16 11 65 -3 69 -5 1 -17 -14 -27 -33 -25 -45 -46 -46 -135 -5
-80 36 -152 55 -204 54 -38 -2 -58 2 -77 14 -19 12 4 68 24 60 14 -5 15 2 9
53 -14 122 -16 130 -77 210 -32 43 -59 82 -59 85 0 3 -25 18 -55 33 -30 14
-55 33 -55 41 0 22 13 18 44 -10 15 -14 30 -25 34 -25 4 -1 26 -5 50 -9 39 -8
65 0 43 13 -18 11 -5 55 22 76 35 27 34 83 0 88 -17 3 -24 12 -28 40 -3 20
-11 48 -18 62 -13 27 -105 92 -118 84 -10 -6 -39 36 -39 56 0 11 -25 22 -87
39 -49 13 -98 27 -110 32 -26 10 -51 62 -49 101 2 30 -31 55 -58 45 -18 -7
-21 -33 -6 -42 6 -3 10 -13 10 -21 0 -20 -39 -18 -47 4 -4 9 -14 22 -22 29
-13 10 -14 15 -3 32 16 27 15 31 -3 31 -17 0 -38 34 -27 45 4 4 -2 6 -13 4
-15 -3 -21 -13 -23 -42 -3 -32 -7 -37 -27 -37 -15 0 -33 11 -46 30 -12 16 -39
36 -59 44 -21 8 -40 23 -43 33 -4 10 -10 25 -15 33 -25 41 -52 114 -52 139 0
33 -27 102 -44 113 -6 4 -25 8 -42 8 -26 0 -32 5 -41 34 -6 19 -8 38 -4 43 3
5 32 9 63 9 32 -1 62 4 69 11 9 9 7 11 -8 7 -27 -7 -37 11 -34 63 2 37 -1 45
-21 52 -13 5 -28 6 -34 4 -7 -2 -21 7 -32 21 -11 14 -26 26 -33 26 -8 0 -22 7
-32 15 -11 7 -25 11 -33 8 -9 -3 -14 2 -14 15 0 32 -25 45 -72 38 -62 -9 -89
-7 -104 4 -6 6 -24 8 -38 4 -21 -5 -26 -3 -27 12 0 18 -1 18 -7 1 -7 -17 -61
-51 -69 -43 -3 2 3 16 13 31 10 15 26 51 36 79 31 91 20 125 -26 79 -28 -27
-33 -43 -15 -43 12 0 3 -73 -13 -102 -12 -24 -29 -23 -35 1 -4 15 -10 18 -26
12 -16 -6 -21 -15 -19 -35 3 -23 0 -26 -27 -26 -34 0 -61 22 -61 50 0 10 -4
22 -10 25 -5 3 -10 21 -10 40 0 19 -4 37 -10 40 -5 3 -10 15 -10 25 0 10 -6
25 -12 32 -21 22 -48 75 -48 94 0 9 -7 26 -16 35 -21 24 -21 116 -1 156 9 16
18 45 22 66 6 29 4 37 -8 37 -16 0 -32 35 -41 90 -6 36 17 136 35 155 5 5 9
21 9 37 0 15 6 31 13 35 25 15 49 62 44 85 -7 26 8 48 33 48 12 0 21 -10 25
-32 14 -64 71 -91 58 -28 -3 19 -1 30 6 30 6 0 11 15 11 34 0 35 -13 46 -51
46 -25 0 -24 24 3 61 17 23 19 32 10 38 -19 11 -3 40 26 48 17 4 29 1 37 -10
7 -9 15 -14 19 -10 3 3 -1 14 -10 24 -23 25 -14 54 16 55 36 0 50 11 50 38 0
13 9 34 19 47 19 24 19 24 40 5 27 -25 33 -18 36 41 2 41 5 48 21 46 10 -2 43
4 72 13 48 15 51 17 35 30 -10 7 -24 14 -30 14 -25 0 -4 60 21 60 7 0 34 20
59 44 35 33 51 42 70 39 17 -3 32 2 46 16 12 12 30 21 41 21 11 0 20 5 20 10
0 6 9 10 21 10 16 0 20 -5 17 -22 -2 -13 -9 -22 -15 -21 -15 3 -36 -24 -28
-37 9 -15 25 -12 25 5 0 8 14 22 31 30 22 12 29 22 27 38 -3 29 9 47 31 47 10
0 26 9 36 20 10 11 24 20 32 20 7 0 13 4 13 10 0 15 49 23 64 11 21 -18 30 5
12 30 -13 19 -13 23 0 37 11 11 27 13 60 8 34 -4 52 -1 71 11 20 13 28 14 31
5 2 -6 12 -12 22 -12 10 0 26 -9 34 -21 16 -23 39 -18 29 7 -16 41 86 76 154
52 32 -12 43 -31 23 -43 -13 -8 -13 -55 0 -55 6 0 14 10 19 23 5 12 18 29 29
38 11 9 22 23 25 30 5 12 7 12 15 0 11 -16 -2 -84 -17 -89 -17 -6 -13 -42 4
-42 8 0 15 -5 15 -11 0 -8 4 -8 14 0 18 15 30 -1 21 -29 -4 -13 1 -25 14 -37
29 -24 26 -40 -8 -48 -16 -3 -35 -12 -41 -20 -16 -19 -42 -7 -35 16 5 14 1 19
-14 19 -25 0 -36 -17 -22 -34 11 -13 2 -65 -11 -66 -5 0 -12 0 -17 0 -5 0 -8
14 -7 31 1 27 -3 32 -26 34 -15 2 -30 -1 -34 -6 -3 -5 -19 -2 -37 7 -18 9 -40
21 -49 25 -16 8 -33 -2 -89 -53 -25 -24 -44 -23 -70 3 -26 26 -18 48 22 56 38
7 58 48 36 71 -9 9 -23 11 -36 7 -17 -5 -19 -10 -11 -25 12 -22 0 -31 -60 -48
l-36 -9 4 32 c2 18 -1 36 -7 39 -7 5 -11 -4 -11 -23 0 -16 -6 -34 -13 -38 -7
-4 -19 -23 -26 -41 -8 -19 -23 -35 -36 -38 -29 -7 -43 -53 -21 -66 9 -5 16
-18 16 -28 0 -24 33 -43 48 -28 16 16 29 2 35 -37 8 -51 -2 -105 -21 -105 -8
0 -31 -12 -51 -27 -19 -16 -47 -30 -61 -33 -19 -4 -26 -12 -28 -35 -5 -37 -19
-55 -44 -55 -31 0 -33 29 -3 60 24 25 26 32 15 45 -11 13 -10 19 4 33 9 10 16
24 16 30 0 6 13 25 29 42 25 28 32 30 50 21 18 -10 21 -9 21 8 0 14 -8 20 -32
22 -58 7 -76 0 -70 -23 3 -13 -1 -25 -10 -32 -8 -6 -18 -32 -22 -58 -7 -46
-18 -58 -57 -58 -18 0 -18 -1 1 -20 11 -11 20 -24 20 -29 0 -19 -12 -41 -21
-36 -12 8 -40 -40 -34 -58 4 -8 -2 -21 -12 -28 -14 -10 -20 -28 -22 -63 -2
-47 -1 -48 22 -42 13 3 27 3 31 -1 4 -4 14 -8 22 -9 32 -5 44 -14 38 -29 -3
-8 -13 -15 -20 -15 -8 0 -17 -7 -20 -15 -6 -15 -34 -21 -34 -7 0 4 6 14 12 20
10 10 10 15 -2 22 -22 14 -35 7 -38 -23 -2 -15 -7 -27 -11 -27 -5 0 -11 -9
-14 -21 -3 -12 -10 -18 -16 -14 -13 8 -14 35 -2 35 16 0 22 36 12 64 -6 14
-17 26 -25 26 -26 0 -30 23 -8 40 20 17 20 19 4 32 -9 9 -39 18 -66 22 -50 6
-75 26 -76 59 0 9 6 17 14 17 7 0 28 3 45 6 26 5 31 3 32 -12 1 -17 2 -17 6
-1 2 9 10 17 16 18 7 1 23 2 37 2 20 2 24 7 22 24 -2 13 4 27 16 34 12 8 17
19 14 31 -2 10 3 27 12 37 11 13 14 21 7 26 -22 13 -10 26 22 23 31 -3 32 -1
35 36 3 37 3 38 -25 33 -15 -3 -43 -10 -61 -15 -30 -10 -34 -9 -42 14 -10 25
-30 33 -30 12 0 -20 -61 -51 -74 -38 -16 16 -56 12 -56 -6 0 -12 -7 -15 -24
-12 -38 8 -41 -36 -5 -73 16 -16 34 -29 41 -29 21 0 58 -30 58 -46 0 -12 -10
-13 -50 -8 -50 7 -61 -1 -38 -24 8 -8 9 -15 1 -23 -7 -7 -15 -2 -28 17 -17 26
-17 28 1 41 14 10 15 16 6 25 -9 9 -18 8 -37 -2 -20 -11 -28 -11 -34 -2 -8 14
-51 4 -51 -12 0 -7 17 -17 38 -22 31 -7 38 -14 40 -38 3 -26 2 -28 -23 -22
-22 6 -26 4 -23 -11 2 -11 15 -20 33 -23 16 -3 28 -8 27 -12 -1 -5 -2 -13 -2
-19 0 -5 -8 -9 -17 -8 -31 3 -43 -1 -43 -12 0 -6 11 -8 29 -4 20 4 30 2 34 -9
7 -18 -1 -26 -29 -26 -12 0 -24 -8 -28 -17 -3 -10 -11 -26 -18 -35 -19 -26 -8
-29 61 -17 54 10 65 9 79 -5 15 -14 14 -18 -9 -43 -24 -26 -30 -81 -8 -68 10
7 25 -23 15 -32 -3 -3 -12 0 -20 6 -10 8 -16 9 -21 1 -12 -19 -45 -11 -45 10
0 17 -7 35 -27 69 -6 10 -51 -50 -49 -66 0 -11 -5 -17 -16 -17 -10 1 -18 -2
-18 -7 0 -5 7 -9 16 -9 24 0 12 -34 -13 -38 -13 -2 -27 5 -36 19 -19 26 -37
17 -37 -18 0 -17 7 -27 21 -30 14 -4 19 -12 16 -24 -3 -10 1 -20 9 -23 8 -3
14 -12 14 -21 0 -9 12 -27 27 -41 l26 -24 34 20 c19 11 45 20 59 20 29 0 52
44 34 66 -15 17 7 50 60 93 34 27 41 30 46 16 4 -9 2 -21 -5 -28 -6 -6 -11
-15 -11 -19 0 -10 101 1 113 12 17 15 47 -2 47 -26 0 -13 4 -24 9 -24 5 0 12
-9 16 -20 5 -16 9 -17 24 -8 15 9 25 7 50 -12 43 -30 27 -50 -22 -26 -42 19
-47 20 -47 3 0 -8 -11 -20 -25 -27 -34 -18 -52 -2 -34 31 25 44 17 78 -16 79
-6 0 -18 -13 -27 -28 -16 -27 -16 -29 3 -40 32 -21 12 -33 -44 -26 -45 5 -56
3 -79 -18 -28 -23 -37 -48 -19 -48 5 0 13 9 16 21 11 33 30 16 27 -24 l-4 -37
41 0 c23 0 44 -1 49 -2 4 -2 8 9 10 25 4 30 29 37 39 10 22 -66 39 -92 61 -93
12 0 22 -4 22 -10 0 -5 7 -7 16 -3 16 6 44 -19 44 -39 0 -16 -26 -8 -44 14
l-19 22 -21 -25 c-12 -14 -28 -24 -36 -24 -8 1 -21 3 -27 3 -7 1 -13 12 -13
25 0 12 -7 33 -16 45 -12 18 -19 21 -30 11 -7 -6 -25 -8 -38 -5 -14 3 -28 2
-31 -4 -3 -5 -13 -10 -21 -10 -11 0 -14 9 -12 33 3 30 1 32 -29 32 -18 1 -35
4 -39 8 -7 7 -33 -21 -34 -36 0 -4 11 -12 25 -17 40 -15 28 -41 -26 -53 -14
-4 -36 -16 -49 -27 -29 -25 -54 -22 -58 8 -4 25 -27 30 -36 7 -7 -19 -36 -20
-36 -1 0 7 -7 20 -16 27 -14 11 -18 10 -30 -5 -8 -12 -20 -17 -34 -13 -14 3
-20 1 -17 -6 2 -7 25 -17 51 -22 26 -6 50 -15 54 -20 13 -19 52 -35 82 -35 22
0 30 -5 30 -18 0 -23 -19 -42 -41 -42 -16 0 -59 -56 -59 -77 0 -8 63 -33 84
-33 17 0 3 19 -16 22 -15 2 -24 11 -26 26 -4 27 22 40 45 21 9 -8 24 -13 34
-11 9 2 20 -2 24 -7 3 -6 18 -8 33 -5 19 4 37 -2 62 -20 19 -14 43 -29 53 -32
10 -4 17 -17 17 -31 0 -22 -4 -25 -25 -21 -16 3 -25 1 -25 -7 0 -17 41 -27 56
-14 6 5 18 7 26 4 10 -4 17 1 20 13 3 11 22 28 42 37 35 17 37 17 54 -2 21
-25 88 -39 107 -23 22 18 34 3 28 -34 -5 -31 -3 -34 36 -49 47 -19 101 -22
101 -6 0 6 -10 33 -21 60 -14 32 -27 49 -39 49 -22 0 -32 24 -17 39 16 16 47
14 53 -4 4 -8 10 -15 15 -15 5 0 9 7 9 15 0 8 5 15 10 15 6 0 9 -12 8 -27 -2
-18 2 -28 10 -27 6 1 28 2 48 3 22 0 33 5 29 12 -4 5 1 19 10 29 16 17 15 18
-14 25 -16 3 -35 13 -42 21 -17 20 -37 17 -44 -6 -5 -16 -11 -19 -28 -13 -34
12 -87 6 -107 -12 -10 -9 -24 -14 -29 -10 -14 8 -14 35 -1 35 17 0 70 62 70
81 0 17 10 48 32 96 13 27 4 43 -22 36 -25 -7 -26 10 -3 37 18 21 48 27 57 11
3 -5 20 -7 38 -5 18 1 36 3 41 3 4 1 7 5 7 10 0 4 -19 11 -41 14 -47 6 -64 23
-43 44 8 8 14 20 14 27 0 7 9 21 20 31 17 15 20 16 25 3 3 -8 5 -21 3 -29 -4
-17 60 -19 74 -1 12 14 38 -1 38 -24 0 -19 37 -36 60 -29 22 7 25 22 10 45 -8
12 -10 12 -16 -3 -15 -41 -54 -5 -54 51 0 16 -7 35 -15 42 -32 26 -10 60 24
38 18 -11 27 -9 63 11 24 12 49 21 57 19 7 -1 15 2 18 8 2 7 -8 14 -22 18 -14
4 -25 13 -25 22 0 14 -11 15 -74 10 -93 -8 -104 7 -44 58 35 30 39 38 28 51
-7 8 -10 18 -7 21 10 10 39 -5 32 -16 -3 -5 0 -10 8 -10 8 0 22 -9 32 -20 17
-19 19 -19 37 -4 10 10 18 23 18 31 0 7 7 13 15 13 21 0 19 -33 -4 -61 -18
-23 -18 -23 4 -41 28 -22 78 -23 95 -3 7 8 17 15 22 15 5 0 18 10 27 22 24 29
55 18 49 -17 -4 -19 -1 -25 13 -25 21 0 26 16 7 22 -14 5 13 54 40 74 13 9 12
14 -6 32 -22 22 -26 21 -23 -10 1 -10 -4 -18 -12 -18 -10 0 -14 17 -15 65 -2
61 -1 65 23 71 14 3 25 10 25 15 0 17 -28 9 -58 -16 -38 -31 -52 -32 -52 -1 0
16 -7 27 -20 31 -22 7 -27 30 -9 41 12 7 -48 73 -68 74 -14 0 -37 75 -29 95 3
8 14 15 26 17 22 3 22 3 -2 25 l-24 23 -22 -20 c-36 -34 -91 -20 -57 14 13 13
14 19 3 36 -11 18 -10 23 7 36 14 11 16 17 8 22 -7 4 -16 19 -22 32 -7 18 -10
20 -10 8 -1 -10 -4 -19 -8 -19 -5 -1 -18 -3 -29 -4 -12 -1 -33 -5 -48 -9 -19
-5 -26 -3 -26 9 0 8 3 15 8 15 4 0 26 18 50 40 39 37 72 51 72 33 0 -5 13 -16
29 -25 26 -14 32 -14 42 -2 13 16 49 19 49 3 0 -6 9 -8 21 -4 13 5 25 1 33
-10 11 -15 16 -15 54 -2 42 15 42 15 42 -10 0 -38 23 -22 37 26 15 52 29 71
55 71 29 0 35 -30 10 -49 -12 -9 -28 -36 -35 -61 -10 -36 -18 -46 -37 -48 -14
-2 -29 -10 -33 -18 -9 -16 -47 -19 -47 -3 0 5 -5 7 -11 3 -8 -5 -7 -10 4 -16
12 -6 15 -17 10 -39 -6 -30 -5 -30 23 -17 16 6 33 15 39 20 16 14 34 9 46 -13
15 -29 -11 -59 -35 -40 -12 10 -20 9 -40 -5 l-26 -16 32 -17 c52 -26 47 -40
-14 -37 -66 4 -90 14 -86 35 2 11 12 15 31 13 15 -2 27 -1 27 1 0 17 -14 37
-26 37 -18 0 -65 -48 -53 -55 5 -4 6 -17 3 -31 -4 -16 -2 -24 7 -24 7 0 25
-12 40 -26 23 -22 30 -24 48 -14 12 6 30 9 40 5 10 -3 29 3 44 15 15 12 31 19
36 16 15 -10 5 -119 -13 -132 -15 -11 -15 -12 -1 -18 14 -5 16 -17 12 -65 -4
-51 -2 -63 15 -78 18 -16 20 -16 29 -1 5 9 24 20 42 23 17 4 35 12 38 18 4 5
12 6 19 2 10 -6 9 -11 -5 -22 -14 -9 -16 -16 -8 -24 13 -13 41 3 72 43 17 21
19 29 9 50 l-12 25 -34 -19 c-32 -17 -52 -17 -52 2 0 5 15 18 34 29 19 12 37
32 40 45 4 18 15 25 43 29 43 7 63 -5 63 -39 0 -12 5 -26 10 -29 6 -3 10 -14
10 -25 0 -19 26 -35 35 -21 8 14 78 10 99 -5 27 -18 62 -18 70 1 12 32 26 14
20 -25 -5 -33 -3 -43 11 -54 19 -14 13 -36 -9 -36 -8 0 -20 10 -28 21 -11 18
-18 20 -33 11 -11 -6 -34 -16 -51 -23 -36 -14 -63 -67 -41 -81 19 -12 37 -9
44 8 5 13 14 15 46 10 33 -6 42 -3 54 14 19 27 37 25 61 -4 13 -18 25 -23 41
-19 26 7 28 33 2 33 -27 0 -34 15 -20 42 7 13 15 30 19 38 4 8 16 19 28 25 13
6 22 19 22 32 0 21 5 23 50 23 28 0 50 2 50 3 0 17 -37 71 -57 85 -14 9 -36
27 -48 38 -28 26 -63 35 -132 37 -36 0 -54 5 -58 15 -7 19 13 42 36 42 12 0
19 7 19 20 0 12 10 25 25 32 31 14 28 32 -6 33 -17 0 -24 5 -22 19 1 11 -5 25
-13 33 -8 8 -14 21 -14 29 0 19 -12 18 -41 -4 -13 -10 -35 -23 -49 -30 -40
-19 -64 -36 -78 -55 -10 -13 -17 -15 -33 -7 -17 10 -19 7 -19 -19 0 -16 4 -32
10 -36 11 -7 2 -35 -11 -35 -5 0 -13 8 -16 18 -13 33 -40 54 -62 47 -25 -8
-41 19 -22 38 9 9 16 9 31 -1 11 -7 28 -9 40 -4 18 7 19 10 7 25 -10 15 -18
16 -39 8 -27 -10 -48 1 -48 25 0 7 -10 14 -22 16 -17 2 -22 9 -20 26 2 13 -2
22 -10 22 -7 0 -19 15 -27 33 -7 17 -20 37 -29 44 -8 7 -12 19 -9 28 9 22 38
19 44 -5 3 -11 12 -20 19 -20 22 0 17 16 -13 42 -32 28 -53 61 -53 83 0 20 12
19 54 -4 32 -18 35 -19 48 -3 16 18 16 109 1 148 -9 24 -5 25 -103 -28 -31
-17 -32 -17 -37 2 -3 10 -15 20 -27 22 -25 4 -30 44 -5 42 26 -2 20 44 -8 66
-39 30 -24 53 29 45 24 -4 49 -11 55 -17 14 -11 73 7 73 23 0 4 20 8 44 7 24
0 52 4 62 10 11 7 25 9 32 7 8 -3 20 -5 27 -5z m-230 -498 c-5 -23 1 -36 30
-67 33 -37 46 -75 25 -75 -5 0 -10 -4 -10 -10 0 -5 7 -10 15 -10 8 0 23 -8 33
-17 9 -10 26 -18 37 -18 11 0 20 -7 20 -15 0 -10 -9 -14 -27 -13 -16 1 -28 -2
-28 -8 0 -14 -56 -11 -69 5 -7 8 -11 23 -9 33 2 10 -1 17 -7 16 -5 0 -19 -3
-30 -5 -28 -5 -33 30 -5 40 20 7 20 9 6 21 -9 8 -16 22 -16 32 0 10 -4 21 -10
24 -11 7 -13 54 -4 79 3 9 17 16 31 16 22 0 24 -3 18 -28z m-597 -195 c6 -6
13 -24 17 -40 4 -15 14 -27 21 -27 8 0 17 -7 20 -15 8 -19 20 -19 28 1 4 11
-5 19 -30 30 -47 20 -39 38 19 42 36 2 49 -1 53 -12 3 -9 13 -16 20 -16 8 0
20 -12 26 -26 11 -22 10 -28 -7 -40 -10 -8 -29 -14 -42 -14 -26 0 -30 -15 -8
-36 19 -19 19 -29 -1 -48 -18 -18 -40 -21 -49 -6 -3 6 -12 10 -18 10 -7 0 1
-11 17 -23 35 -28 28 -47 -18 -47 -43 0 -69 20 -64 51 2 17 10 25 28 27 26 4
50 27 50 49 0 7 -6 13 -12 13 -15 0 -78 57 -78 71 0 5 -16 9 -35 9 -46 0 -47
26 -2 45 40 18 52 18 65 2z m-1068 -118 c0 -5 12 -9 28 -9 24 -1 23 -2 -13
-15 -22 -8 -50 -12 -63 -8 -17 4 -31 -2 -53 -23 -16 -15 -29 -34 -29 -41 0 -7
-4 -21 -10 -31 -14 -25 -55 -128 -75 -190 -9 -29 -19 -51 -21 -49 -2 2 12 51
32 110 22 63 34 113 30 123 -6 16 -8 16 -16 4 -7 -11 -10 -7 -11 18 -1 17 -2
37 -3 44 -1 7 9 17 20 23 12 6 29 17 38 24 10 8 26 10 46 6 25 -5 36 -2 51 14
18 19 49 19 49 0z m981 -119 c10 -6 19 -21 19 -34 0 -35 54 -89 80 -81 16 5
20 2 20 -14 0 -18 -6 -21 -38 -21 -28 0 -45 -7 -61 -24 -30 -31 -20 -46 30
-46 21 0 39 -3 39 -7 0 -14 -53 -83 -64 -83 -7 0 -17 5 -23 11 -16 16 -33 2
-33 -27 0 -20 -5 -24 -29 -24 -16 0 -34 7 -41 15 -7 8 -23 15 -35 15 -49 0
-56 8 -40 46 8 19 12 41 9 48 -3 8 0 17 6 21 14 9 71 -13 88 -34 9 -11 15 -12
24 -3 9 9 8 12 -5 12 -24 0 -21 26 4 44 29 20 45 111 24 133 -16 15 -20 45 -8
56 8 9 11 9 34 -3z m-1286 -451 c-25 -74 -42 -141 -39 -149 4 -8 6 -25 5 -37
-2 -19 2 -23 29 -23 38 0 49 -23 24 -51 l-19 -21 -18 23 c-15 19 -21 21 -38
11 -25 -16 -26 -16 -44 12 -13 20 -14 28 -3 52 6 16 19 36 29 44 9 8 30 60 47
115 17 55 37 119 44 142 8 28 15 38 20 29 4 -7 -12 -72 -37 -147z m911 -113
c3 -7 -4 -30 -16 -50 -11 -21 -18 -42 -14 -47 8 -14 -15 -39 -38 -39 -24 0
-34 -26 -18 -45 16 -19 30 -19 30 0 0 16 66 48 81 39 17 -10 10 -44 -10 -44
-32 0 -51 -11 -51 -31 0 -10 -9 -23 -20 -29 -20 -11 -33 -2 -72 53 -8 11 -28
18 -53 20 -50 3 -53 22 -3 23 37 1 68 17 68 36 0 19 -45 26 -73 11 -32 -16
-57 -11 -57 11 0 30 119 42 136 15 3 -5 16 -9 30 -9 19 0 24 5 25 28 2 26 4
48 8 65 2 13 41 8 47 -7z m-798 -338 c17 -17 15 -48 -2 -48 -20 0 -29 -35 -16
-60 12 -22 -4 -65 -20 -55 -11 7 -40 -47 -40 -75 0 -24 28 -26 113 -5 62 14
87 29 87 51 0 17 46 19 56 3 12 -21 22 -79 13 -79 -14 0 -11 -96 4 -107 16
-12 73 -29 122 -38 21 -4 51 -13 65 -20 19 -10 38 -11 74 -4 62 11 77 1 74
-55 -1 -22 1 -54 6 -71 7 -28 6 -28 -10 5 l-17 35 -8 -45 c-9 -44 -8 -45 36
-87 24 -24 50 -43 57 -43 7 0 23 -18 36 -41 13 -22 29 -42 35 -44 7 -2 38 -11
70 -20 l58 -16 -23 -29 c-13 -16 -28 -29 -34 -29 -7 -1 -14 -11 -17 -23 -6
-20 -8 -21 -24 -6 -26 22 -46 26 -60 12 -7 -7 -13 -15 -13 -19 0 -6 -7 -16
-45 -59 -14 -17 -21 -32 -16 -36 6 -3 6 -11 1 -20 -15 -23 -12 -27 22 -34 17
-3 37 -15 45 -25 16 -24 99 -39 116 -22 21 21 75 13 92 -13 9 -13 29 -29 45
-36 51 -21 57 -37 24 -69 l-29 -29 -33 25 c-18 14 -36 22 -39 19 -3 -3 -15 1
-27 9 -11 8 -27 15 -36 15 -20 0 -80 -57 -80 -76 0 -7 -7 -14 -16 -14 -21 0
-43 -29 -44 -57 0 -22 46 -53 80 -53 9 0 26 -10 37 -22 37 -42 36 -46 -15 -44
-41 1 -47 4 -50 23 -4 30 -50 65 -74 57 -33 -10 -65 4 -70 30 -3 14 -1 29 5
35 11 11 -10 128 -24 137 -11 7 -27 -27 -35 -73 -6 -38 -8 -40 -43 -39 -35 1
-36 2 -36 41 -2 129 -6 135 -79 105 -31 -12 -56 -26 -56 -31 0 -4 -9 -17 -21
-27 -28 -27 -46 -195 -24 -229 9 -13 12 -33 9 -51 -7 -34 13 -115 26 -107 17
10 59 -26 65 -56 9 -38 6 -41 -33 -30 -27 8 -32 7 -32 -7 -1 -29 -39 51 -40
82 0 42 -11 26 -16 -25 -13 -139 -22 -146 -17 -15 3 77 2 141 -3 145 -5 3 -22
25 -38 48 -24 36 -27 48 -21 80 5 27 9 33 16 22 7 -11 9 -11 9 4 0 9 -4 17
-10 17 -5 0 -10 9 -10 21 0 23 -13 38 -53 58 -27 14 -29 13 -75 -31 -26 -25
-53 -43 -61 -41 -9 4 -11 0 -7 -14 4 -12 0 -25 -9 -33 -8 -7 -15 -23 -15 -37
0 -13 -6 -30 -13 -37 -20 -20 -4 -219 22 -276 11 -25 21 -56 21 -71 0 -33 17
-49 52 -49 36 0 64 -39 49 -69 -15 -27 -14 -31 9 -31 12 0 31 11 44 25 13 14
29 25 36 25 8 0 11 9 8 24 -4 18 2 31 20 47 17 14 27 18 30 11 2 -7 10 -12 18
-12 10 0 13 -10 9 -40 -3 -24 -1 -40 5 -40 5 0 10 9 10 21 0 16 4 19 18 14 9
-4 24 -8 32 -9 20 -3 58 -25 43 -26 -7 0 -14 -8 -14 -17 -1 -17 -2 -17 -6 0
-7 25 -17 21 -30 -13 -6 -16 -15 -30 -20 -30 -11 0 -37 25 -58 55 -14 20 -14
20 -15 -2 0 -13 -4 -23 -10 -23 -5 0 -10 9 -10 20 0 28 -14 25 -50 -12 -33
-36 -36 -63 -5 -63 26 0 40 -69 18 -91 -18 -18 -27 -18 -43 1 -14 17 -40 3
-40 -22 0 -8 -4 -12 -9 -9 -5 3 -7 25 -4 49 l6 42 -22 -27 c-11 -14 -21 -30
-21 -34 0 -4 -11 -22 -25 -40 -14 -18 -23 -39 -20 -46 3 -7 1 -34 -3 -60 -8
-42 -7 -49 18 -79 20 -22 34 -30 48 -27 35 10 55 -10 47 -48 -4 -26 -2 -36 10
-40 8 -3 15 -12 15 -19 0 -6 9 -20 20 -30 11 -10 25 -36 31 -57 13 -49 29 -55
88 -34 68 24 73 19 11 -12 -48 -23 -52 -27 -30 -30 30 -4 70 -39 70 -61 0 -8
-9 -25 -21 -37 -17 -18 -19 -26 -9 -43 6 -12 8 -27 4 -34 -4 -6 -4 -9 1 -5 4
4 14 0 21 -10 11 -15 14 -14 24 13 7 17 18 50 25 75 17 59 18 20 1 -44 -16
-60 -5 -98 33 -114 l26 -11 -27 6 c-14 2 -36 0 -47 -7 -19 -10 -21 -19 -21
-112 0 -56 -3 -99 -6 -95 -3 3 -6 40 -5 82 1 53 -2 74 -10 69 -7 -4 -9 -22 -5
-49 5 -32 3 -47 -9 -59 -15 -15 -15 -21 -1 -71 9 -30 26 -61 37 -69 31 -21 21
-50 -19 -54 -30 -3 -33 -1 -30 19 2 17 -6 29 -31 46 -46 31 -54 29 -68 -15 -6
-20 -15 -45 -18 -55 -6 -13 -2 -17 15 -17 12 0 30 5 41 10 12 7 19 7 19 1 0
-6 -16 -13 -36 -17 -35 -6 -36 -7 -29 -43 4 -24 19 -47 43 -69 20 -18 32 -31
25 -27 -7 3 -17 -4 -23 -15 -9 -17 -7 -24 12 -40 l23 -20 -27 10 c-21 7 -28 6
-28 -3 0 -22 23 -42 68 -62 37 -16 45 -17 53 -4 8 10 9 8 4 -9 -6 -19 0 -25
40 -43 56 -25 110 -27 133 -6 21 19 43 17 67 -7 13 -12 15 -20 7 -28 -15 -15
14 -58 39 -58 23 0 24 -9 3 -38 -14 -21 -54 -31 -54 -14 0 12 -89 40 -152 47
-42 5 -64 2 -87 -9 -29 -16 -31 -15 -47 9 -9 14 -24 25 -34 25 -10 0 -23 7
-31 16 -23 28 -207 115 -232 109 -35 -9 -76 42 -75 91 1 41 -7 64 -47 129 -28
46 -31 68 -11 87 18 18 24 49 36 182 9 101 8 111 -10 141 -25 40 -61 65 -94
65 -34 0 -38 10 -24 70 8 36 9 57 1 68 -5 10 -8 43 -5 74 5 67 -26 148 -58
148 -10 0 -23 7 -30 15 -10 13 -10 19 3 33 9 10 18 41 20 70 3 32 10 57 20 65
12 9 57 151 57 180 0 13 -164 81 -220 91 -60 10 -65 13 -71 42 -7 38 -54 92
-83 96 -26 4 -33 34 -13 56 22 24 39 126 27 158 -13 32 -8 40 34 54 19 6 37
17 40 25 2 7 37 57 76 110 96 131 110 155 104 182 -5 17 0 25 17 33 29 13 144
259 136 290 -3 11 3 30 14 44 22 28 36 101 21 110 -7 4 -7 15 0 34 16 43 -15
223 -42 241 -27 18 -25 43 5 69 19 16 25 32 25 61 0 34 4 40 28 49 38 13 82
60 82 88 0 13 4 24 9 24 17 0 44 54 46 93 1 21 12 52 24 68 14 19 20 37 16 50
-6 19 9 49 24 49 4 0 12 -5 19 -12z m742 -297 c0 -5 7 -17 16 -26 9 -8 13 -23
10 -31 -6 -16 -20 -15 -79 2 -15 5 -18 1 -15 -18 3 -20 8 -23 43 -20 42 2 150
-32 174 -56 11 -10 12 -19 4 -31 -14 -22 -56 -25 -95 -7 -18 8 -58 18 -88 21
-35 5 -67 16 -87 32 -34 25 -44 53 -20 53 8 0 22 9 31 19 10 11 28 22 42 25
15 4 24 14 24 26 0 13 7 20 20 20 11 0 20 -4 20 -9z m3221 -2411 c-6 -69 -20
-172 -32 -230 -29 -143 -30 -166 -3 -162 11 1 28 -6 38 -17 17 -19 18 -22 2
-45 -10 -16 -22 -23 -31 -20 -12 5 -15 -2 -15 -29 0 -20 -4 -39 -10 -42 -5 -3
-7 0 -5 8 3 7 -6 26 -20 41 -36 39 -43 81 -17 109 25 27 36 114 33 250 -2 79
0 97 12 97 18 0 22 16 39 150 17 138 23 66 9 -110z m-2461 -194 c14 -14 43
-49 65 -79 25 -35 50 -57 70 -63 18 -6 31 -17 33 -29 7 -52 15 -67 42 -92 17
-14 28 -28 26 -30 -2 -2 -21 12 -42 31 -35 33 -40 34 -51 19 -7 -9 -13 -23
-13 -29 0 -7 -12 -2 -26 12 -20 21 -33 25 -61 22 l-35 -4 26 19 c40 29 32 37
-34 37 -33 0 -60 4 -60 8 0 4 34 8 75 8 41 0 78 3 81 7 8 8 -16 46 -51 81 -29
29 -41 32 -49 14 -9 -22 -36 23 -36 59 0 39 7 41 40 9z m330 -344 c16 -7 19
-29 8 -47 -7 -11 35 -102 55 -121 7 -6 26 -14 42 -18 20 -4 25 -4 16 3 -12 8
-12 14 -1 40 7 17 18 31 24 31 6 0 20 3 32 6 18 5 20 2 16 -26 -2 -17 -11 -34
-18 -37 -31 -12 -11 -20 27 -12 67 15 55 4 -16 -16 -36 -9 -65 -23 -65 -30 0
-6 -11 -17 -25 -23 -19 -9 -27 -8 -39 3 -20 20 -126 0 -126 -24 0 -9 -5 -23
-11 -31 -8 -12 -10 -9 -6 13 3 22 1 27 -17 27 -39 0 -64 -12 -69 -32 -4 -15
-11 -18 -29 -13 -13 4 -29 13 -37 20 -11 11 -9 15 10 28 13 8 35 18 49 21 14
3 19 3 12 0 -27 -12 0 -21 37 -12 38 10 39 10 20 29 -22 22 -35 24 -43 7 -3
-7 -2 0 1 17 6 29 16 42 62 80 l24 20 -6 -24 c-4 -18 -3 -21 6 -12 17 17 27
13 27 -9 0 -11 6 -20 13 -20 9 0 9 -2 0 -8 -6 -4 -15 -20 -19 -36 -6 -25 -4
-27 12 -23 11 4 31 9 47 13 15 3 27 9 27 13 0 23 -53 110 -70 116 -11 3 -20
15 -20 25 0 10 -4 22 -10 25 -14 8 11 45 30 44 8 0 22 -3 30 -7z m-1172 -181
c28 17 72 -5 72 -36 0 -20 5 -25 24 -25 14 0 28 -5 31 -11 13 -20 57 -29 148
-29 144 -1 152 1 149 29 -2 22 0 21 35 -13 23 -22 47 -36 63 -36 14 0 32 -6
39 -12 10 -11 16 -8 29 10 16 20 21 21 49 12 23 -8 37 -8 52 -1 25 14 41 14
21 1 -10 -6 -11 -10 -2 -10 6 0 12 -11 12 -24 0 -14 5 -28 11 -32 8 -5 7 -9
-4 -15 -27 -15 -8 -47 36 -61 40 -13 41 -14 43 -61 1 -45 1 -46 -13 -27 -11
16 -18 18 -28 10 -16 -13 -43 -4 -76 27 -37 34 -225 73 -271 55 -26 -10 -36
-9 -56 4 -19 12 -39 14 -105 8 -45 -3 -89 -10 -98 -15 -19 -10 -129 1 -129 12
0 5 14 9 30 9 18 0 37 8 47 19 13 16 21 18 36 10 10 -6 58 -12 105 -14 70 -2
89 1 98 14 15 20 9 31 -17 31 -10 0 -20 5 -20 10 -1 6 -2 15 -3 22 -2 17 -155
38 -181 25 -24 -12 -75 -15 -82 -4 -2 4 3 10 11 13 9 3 16 12 16 19 0 17 -28
27 -33 12 -7 -23 -69 51 -66 80 0 4 3 3 6 -4 3 -9 9 -9 21 -2z m1280 -128 c6
-16 20 -55 31 -88 11 -33 25 -61 33 -64 7 -2 16 -8 19 -13 3 -4 34 -11 70 -14
87 -9 90 -16 4 -13 -59 2 -70 0 -70 -14 0 -8 -4 -19 -8 -23 -4 -4 -7 -17 -7
-28 0 -16 -2 -18 -9 -7 -5 8 -15 11 -23 9 -10 -4 -15 4 -16 30 -2 19 -5 38 -7
42 -2 4 -44 12 -92 19 -48 7 -94 15 -101 17 -7 2 -15 -3 -18 -11 -9 -22 -32
-18 -65 9 -26 23 -27 24 -8 29 16 4 19 11 15 29 -3 13 -3 17 0 11 3 -7 16 -13
29 -13 14 0 25 -7 27 -18 8 -30 168 -57 184 -31 4 8 9 8 17 0 32 -32 30 10 -3
84 -26 57 -33 85 -22 85 5 0 14 -12 20 -27z m-498 -232 c0 -5 15 -25 33 -44
17 -20 45 -52 61 -72 17 -21 41 -39 58 -42 28 -6 34 -16 40 -73 2 -17 10 -26
24 -28 12 -2 30 -12 40 -23 18 -20 18 -21 -1 -35 -24 -18 -37 -14 -52 17 -10
19 -20 24 -50 24 -38 0 -38 1 -43 45 -4 32 -21 68 -58 124 -67 100 -76 116
-62 116 5 0 10 -4 10 -9z"/>
<path d="M6303 6842 c-17 -2 -24 -13 -29 -39 -4 -22 -14 -37 -25 -40 -10 -3
-16 -10 -13 -17 2 -6 -18 -36 -45 -66 -28 -32 -46 -59 -41 -65 4 -5 11 -31 14
-57 4 -27 11 -48 17 -48 5 0 9 4 9 9 0 14 64 20 72 7 4 -6 8 -26 8 -43 0 -26
-5 -34 -25 -39 -14 -3 -25 -12 -25 -20 0 -8 -4 -14 -9 -14 -11 0 -21 25 -21
52 0 14 -5 18 -16 14 -10 -4 -18 3 -26 24 -15 43 -38 39 -34 -6 2 -32 -1 -38
-27 -49 -18 -7 -25 -15 -18 -19 19 -12 13 -64 -9 -76 -27 -14 -25 -30 3 -30
25 1 57 22 57 38 0 21 21 24 41 6 18 -17 20 -17 33 1 8 11 20 16 29 12 9 -3
26 4 41 20 21 21 27 23 32 10 3 -8 15 -17 26 -20 17 -5 20 -12 16 -39 -6 -38
17 -72 33 -47 5 8 9 18 9 22 0 16 44 67 59 67 8 0 22 6 30 14 18 16 60 25 61
14 0 -5 0 -12 0 -18 0 -5 -15 -10 -32 -10 l-33 0 -1 -55 c-1 -52 1 -55 33 -70
32 -15 73 -13 73 4 0 4 -11 13 -25 19 -31 14 -32 36 -3 56 20 14 23 14 31 1 5
-10 16 -13 32 -9 17 4 26 0 35 -15 6 -12 16 -21 21 -21 15 0 2 48 -18 68 -14
14 -14 17 2 28 21 15 10 37 -15 29 -25 -8 -51 35 -44 74 6 27 10 30 39 29 19
-1 40 6 50 15 19 20 46 22 63 5 20 -20 14 -38 -13 -38 -17 0 -25 -6 -25 -17 0
-10 -3 -28 -6 -39 -5 -19 -2 -21 20 -17 23 5 26 2 26 -21 0 -19 -5 -26 -18
-26 -27 0 -31 -8 -18 -36 9 -19 17 -24 40 -22 23 2 34 12 52 45 12 23 34 52
48 65 22 20 25 27 18 53 -8 27 -13 30 -47 30 -22 0 -40 5 -42 13 -4 11 9 17
30 13 5 -1 7 4 5 11 -3 7 -21 14 -42 16 -48 4 -48 35 1 40 24 2 30 7 26 21 -7
27 -41 45 -59 30 -8 -6 -14 -19 -14 -29 0 -10 -13 -23 -30 -30 -16 -7 -30 -16
-30 -21 0 -4 -10 -11 -22 -14 -15 -6 -26 -1 -38 15 -11 15 -23 21 -34 17 -23
-9 -20 -37 4 -37 21 0 27 -15 10 -25 -6 -4 -9 -14 -8 -23 2 -9 -5 -18 -16 -20
-14 -3 -17 0 -13 12 7 19 -4 21 -21 4 -8 -8 -15 -8 -27 2 -14 12 -14 15 0 36
12 19 12 24 2 24 -7 0 -18 -14 -25 -32 -10 -26 -9 -35 3 -48 26 -29 14 -55
-12 -29 -20 20 -46 2 -39 -26 8 -30 -7 -32 -36 -6 -18 17 -19 24 -9 52 16 46
15 49 -25 46 -22 -1 -39 3 -41 10 -6 16 54 53 85 53 12 0 22 6 22 14 0 7 12
21 26 31 19 12 29 14 39 5 16 -13 55 -4 55 12 0 13 -52 54 -63 50 -16 -5 -96
30 -101 44 -3 8 -17 14 -31 14 -18 0 -25 -5 -25 -20 0 -16 -7 -20 -30 -20 -34
0 -34 0 -18 35 6 14 19 25 29 25 10 0 19 11 23 26 8 31 8 31 -21 26z"/>
<path d="M6853 6690 c-3 -11 -9 -20 -14 -20 -20 0 -7 -44 19 -68 16 -15 31
-33 33 -41 4 -11 9 -11 24 -2 28 18 75 -1 75 -29 0 -19 -4 -21 -45 -14 l-45 6
6 -33 c9 -44 10 -45 31 -21 17 20 20 20 58 7 34 -12 41 -12 48 0 4 8 17 15 28
15 15 0 20 -6 19 -22 -4 -47 -1 -52 19 -34 13 12 35 17 72 16 30 -1 75 2 101
6 44 6 47 8 46 36 -1 37 -55 95 -72 78 -8 -8 -5 -16 12 -30 13 -11 21 -24 17
-30 -12 -20 -40 -9 -65 25 -14 19 -31 37 -39 40 -16 7 -46 -32 -46 -60 0 -13
-8 -21 -23 -23 -14 -2 -22 2 -22 11 0 20 -26 41 -35 27 -3 -5 -13 -10 -21 -10
-12 0 -14 7 -9 30 5 23 3 30 -9 30 -9 0 -16 6 -16 13 0 21 12 28 26 16 10 -8
13 -3 12 21 -1 34 -25 54 -49 39 -7 -5 -26 -6 -41 -3 -14 3 -36 -1 -47 -8 -30
-18 -48 8 -24 34 15 17 15 18 -1 18 -10 0 -20 -9 -23 -20z"/>
<path d="M7402 6420 c-9 -15 -10 -26 -2 -40 11 -21 1 -50 -27 -78 -16 -16 -8
-33 12 -25 18 6 65 -36 65 -59 0 -10 7 -18 15 -18 8 0 15 -9 15 -19 0 -26 -57
-56 -76 -40 -21 17 -17 28 13 40 l26 10 -21 15 c-19 13 -24 13 -47 -2 -36 -24
-35 -75 3 -100 58 -40 85 -35 95 14 10 49 61 53 73 5 5 -20 0 -30 -30 -55 -33
-27 -36 -34 -33 -70 4 -33 1 -41 -14 -45 -23 -6 -25 -39 -3 -47 23 -9 24 -8
24 14 0 25 26 68 54 92 29 24 73 23 81 -2 7 -21 14 -24 52 -20 33 2 72 -44 70
-83 -3 -45 -34 -50 -39 -6 -4 38 -16 45 -43 24 -20 -15 -19 -16 9 -41 34 -30
25 -46 -29 -50 -24 -2 -43 -12 -58 -30 -18 -20 -29 -25 -45 -20 -35 11 -28 38
21 84 9 9 17 21 17 26 0 5 7 17 16 27 10 11 12 19 5 24 -6 3 -11 -1 -11 -9 0
-18 -49 -46 -80 -46 -18 0 -20 -4 -14 -35 5 -30 3 -36 -17 -44 -35 -13 -62 5
-56 36 3 15 -1 27 -10 30 -20 8 -28 -4 -13 -22 13 -16 0 -45 -41 -86 -17 -17
-23 -18 -36 -7 -9 7 -32 13 -52 13 -35 0 -36 1 -36 40 0 39 -1 40 -31 38 -21
-2 -37 4 -49 17 -10 11 -25 20 -34 20 -9 0 -21 8 -28 19 -6 10 -29 22 -50 25
-55 10 -103 38 -110 64 -3 12 -9 22 -14 22 -17 0 -9 18 11 23 28 7 36 35 16
55 -17 17 -26 12 -38 -20 -2 -3 -16 -10 -31 -14 -27 -6 -28 -5 -25 27 2 26 8
35 26 37 18 3 22 10 22 37 0 21 6 35 16 39 33 13 81 -35 68 -68 -5 -12 0 -16
20 -16 33 0 105 36 113 55 3 8 14 15 24 15 14 0 19 -7 19 -30 0 -25 -4 -30
-25 -30 -14 0 -25 -4 -25 -9 0 -6 -12 -23 -28 -40 -19 -22 -33 -29 -49 -25
-25 7 -41 -12 -16 -20 37 -11 87 9 108 42 24 38 38 40 59 7 22 -34 58 -32 96
5 33 32 38 65 15 96 -8 10 -15 31 -15 45 0 15 -7 29 -15 33 -16 6 -21 41 -7
50 9 6 3 76 -7 76 -4 0 -14 -9 -24 -20 -20 -23 -41 -17 -34 10 3 13 0 16 -13
13 -19 -5 -20 -29 -5 -66 11 -25 -1 -33 -34 -20 -37 14 -76 -6 -76 -39 0 -20
-5 -23 -40 -23 -22 0 -45 -4 -52 -8 -9 -5 -10 2 -6 30 7 46 18 55 50 40 28
-13 29 -11 38 36 7 33 5 37 -14 37 -14 0 -21 -6 -21 -20 0 -20 -24 -28 -35
-11 -3 6 -17 6 -34 1 -17 -5 -33 -4 -39 2 -12 12 -50 -10 -58 -34 -3 -10 1
-27 10 -39 15 -21 15 -21 24 12 10 40 45 48 50 12 2 -16 -5 -26 -27 -38 -17
-8 -31 -22 -31 -30 0 -7 -12 -23 -27 -35 l-28 -22 -20 26 c-12 14 -26 26 -33
26 -6 0 -16 9 -22 20 -14 27 -29 25 -40 -5 -12 -32 -24 -32 -38 0 -10 22 -14
24 -31 13 -23 -14 -54 -75 -45 -89 3 -6 18 -8 32 -4 28 5 92 -25 92 -44 0 -5
9 -13 20 -16 11 -3 20 -15 20 -26 0 -21 -20 -25 -37 -8 -7 7 -22 4 -49 -10
-21 -12 -31 -21 -22 -21 9 0 19 -8 22 -17 9 -23 -21 -46 -44 -33 -22 12 -30 4
-30 -28 0 -47 68 -82 88 -45 11 19 39 12 49 -13 6 -17 -50 -80 -77 -86 -8 -2
-20 -8 -27 -14 -14 -14 -85 6 -91 25 -7 22 -40 11 -52 -18 -6 -16 -18 -32 -26
-35 -17 -7 -19 -26 -1 -26 16 0 57 -64 57 -89 0 -11 -9 -23 -20 -26 -13 -4
-20 -15 -20 -31 0 -13 3 -24 6 -24 10 0 74 68 74 78 0 5 11 14 25 20 14 6 25
18 25 27 0 25 18 17 35 -15 12 -24 20 -29 39 -24 17 4 31 -3 58 -32 34 -35 63
-40 51 -9 -3 11 2 15 17 15 19 0 21 -4 16 -25 -6 -23 -4 -25 19 -19 21 5 25 3
25 -15 0 -12 -4 -21 -10 -21 -13 0 -13 -27 1 -35 5 -4 21 -4 35 -1 21 6 23 9
13 27 -14 27 -5 47 25 59 18 6 23 14 19 29 -3 11 2 33 10 50 8 16 12 32 9 35
-11 12 -32 6 -32 -9 0 -19 -19 -19 -61 2 -44 21 -42 18 -34 42 7 24 40 28 52
7 13 -22 52 -30 59 -12 3 8 19 18 35 21 34 8 38 21 8 30 -17 6 -19 12 -13 38
8 42 31 67 61 67 18 0 23 -5 23 -25 0 -14 -7 -28 -15 -31 -22 -9 -18 -41 5
-47 11 -3 20 -12 20 -21 0 -9 -8 -16 -20 -16 -22 0 -27 -16 -7 -23 9 -3 9 -9
-1 -26 -15 -26 4 -30 24 -3 13 16 15 16 28 0 7 -10 21 -18 30 -18 9 0 16 -6
16 -14 0 -47 101 -37 144 15 21 24 30 28 55 23 28 -6 32 -3 42 25 12 35 24 39
38 13 5 -9 30 -23 56 -31 25 -7 52 -22 58 -32 7 -11 23 -19 39 -19 17 0 31 -8
38 -20 9 -16 8 -20 -5 -20 -8 0 -15 -6 -15 -13 0 -7 -7 -23 -16 -35 -21 -30
-45 -16 -59 35 -7 26 -17 39 -31 41 -18 3 -20 -3 -19 -54 0 -48 -3 -59 -22
-71 -27 -18 -30 -31 -7 -29 9 0 19 -5 21 -11 6 -16 -23 -17 -32 -3 -4 6 -15 8
-25 5 -31 -10 -33 13 -4 43 34 34 40 88 12 103 -23 12 -113 -5 -166 -32 l-34
-18 30 -15 c16 -8 32 -22 35 -31 4 -8 18 -15 32 -15 28 0 44 -25 27 -42 -7 -7
-7 -16 1 -29 9 -15 9 -24 -1 -39 -16 -26 -8 -40 23 -40 13 0 31 -10 39 -22 9
-12 19 -19 22 -15 4 4 16 -1 26 -10 14 -12 21 -14 30 -5 8 8 4 14 -17 22 -20
8 -25 14 -17 22 14 14 41 3 48 -19 21 -64 27 -74 48 -71 15 2 22 11 24 31 4
32 13 34 35 9 21 -23 21 -32 1 -32 -12 0 -14 -7 -9 -31 7 -31 7 -32 -24 -26
-22 5 -31 3 -31 -7 0 -8 9 -16 20 -19 11 -3 20 -12 20 -20 0 -19 -36 -51 -49
-42 -15 9 -14 32 2 38 7 3 6 6 -5 6 -9 1 -20 10 -23 21 -3 11 -9 20 -13 20
-19 -1 -55 -29 -65 -50 -7 -13 -22 -27 -34 -30 -19 -4 -20 -8 -9 -28 l12 -23
12 25 c17 38 60 36 75 -4 7 -18 18 -29 27 -27 12 1 15 -9 15 -48 0 -49 1 -50
33 -53 17 -2 32 0 33 5 8 59 4 87 -14 104 -24 22 -16 53 12 44 42 -13 100 95
71 130 -12 14 -11 18 0 25 34 21 58 -81 29 -117 -7 -7 -9 -16 -5 -20 3 -4 12
2 20 12 21 29 50 12 43 -25 -4 -16 -2 -32 3 -35 6 -3 10 -16 10 -29 0 -12 5
-27 10 -32 6 -6 13 -37 16 -68 4 -52 2 -59 -23 -81 -35 -31 -41 -31 -53 0 -5
14 -14 25 -20 25 -5 0 -10 7 -10 16 0 12 6 15 24 10 45 -11 74 71 31 88 -10 3
-15 19 -15 42 0 21 -3 34 -7 30 -8 -8 -14 -41 -14 -78 0 -21 -5 -28 -19 -28
-12 0 -20 7 -20 16 0 9 -6 14 -12 11 -8 -2 -13 -20 -13 -43 0 -36 -2 -39 -27
-39 -14 0 -30 -3 -34 -7 -4 -5 0 -8 10 -8 27 0 17 -44 -11 -48 -13 -2 -23 -9
-23 -16 0 -20 11 -26 31 -16 24 13 59 -23 59 -62 0 -27 30 -68 50 -68 6 0 10
-11 10 -24 0 -19 4 -22 25 -18 20 3 25 0 25 -17 0 -11 -5 -21 -11 -21 -6 0 -9
-8 -6 -19 2 -10 0 -25 -5 -34 -10 -18 16 -67 35 -67 6 0 19 -7 29 -17 17 -15
18 -15 18 5 0 12 -4 22 -9 22 -17 0 -21 33 -6 56 24 37 46 44 94 30 49 -14 66
-36 57 -72 -7 -26 18 -74 38 -74 6 0 28 -16 49 -35 40 -37 51 -43 45 -23 -3 7
4 21 14 32 22 24 23 35 3 42 -20 8 -19 33 0 41 9 3 22 -2 29 -13 12 -16 18
-17 40 -6 15 7 36 12 46 12 11 0 33 13 49 29 21 20 37 28 51 24 11 -3 20 0 20
6 0 6 9 11 21 11 28 0 21 -34 -8 -38 -12 -2 -26 -9 -32 -16 -12 -14 -3 -88 10
-80 5 3 9 -2 9 -10 0 -22 -14 -27 -60 -20 -51 8 -60 27 -30 60 13 13 19 24 12
24 -6 0 -22 -14 -35 -31 -25 -32 -26 -69 -1 -69 16 0 33 -30 27 -47 -3 -7 -13
-13 -24 -13 -14 0 -19 7 -19 25 0 18 -4 23 -16 18 -9 -3 -20 0 -24 8 -15 23
-24 1 -14 -33 7 -22 17 -34 31 -36 12 -2 25 -12 28 -22 5 -16 9 -17 25 -8 10
7 21 20 24 31 3 12 11 17 23 15 23 -4 31 -38 9 -38 -9 0 -16 -8 -16 -18 0 -28
32 -52 58 -45 12 3 29 0 37 -7 12 -10 15 -9 15 4 0 9 -5 16 -10 16 -20 0 -33
47 -22 79 6 17 7 31 2 33 -5 2 -11 14 -12 28 -2 19 2 25 17 25 16 0 20 -7 20
-32 0 -20 5 -33 12 -33 22 0 61 74 63 121 4 67 2 71 -20 49 -11 -11 -24 -20
-30 -20 -18 0 -11 46 10 65 11 10 19 23 17 29 -3 6 2 19 11 29 14 15 13 19 -3
37 -16 18 -16 20 -1 35 24 24 20 47 -6 43 -17 -2 -24 3 -26 20 -3 20 1 22 36
22 40 0 57 -16 47 -42 -8 -20 65 -15 98 6 33 23 34 30 2 44 -30 14 -32 28 -6
37 32 10 14 35 -25 35 -32 0 -34 -2 -28 -27 4 -16 13 -33 21 -40 16 -13 11
-43 -7 -43 -6 0 -13 7 -16 15 -4 8 -13 15 -20 15 -8 0 -17 7 -20 15 -4 8 -14
15 -24 15 -21 0 -32 21 -19 41 11 17 11 40 1 57 -7 10 -14 10 -35 -1 -24 -12
-25 -16 -12 -27 19 -16 19 -30 0 -30 -9 0 -19 10 -24 21 -7 20 -9 21 -22 5
-27 -33 -64 -66 -72 -66 -5 0 -11 9 -14 20 -3 11 -12 20 -19 20 -8 0 -22 9
-31 20 -10 11 -25 20 -33 20 -9 0 -24 6 -35 13 -17 13 -16 16 23 56 49 50 79
52 101 6 22 -48 42 -66 65 -59 29 9 28 7 14 53 -9 30 -20 43 -40 50 -21 7 -28
17 -28 35 0 18 5 26 18 26 23 1 62 34 62 53 0 9 -3 22 -6 31 -5 14 -9 14 -34
1 -32 -17 -40 -12 -40 27 0 15 -4 28 -10 28 -5 0 -10 7 -10 16 0 24 -68 101
-95 108 -14 4 -25 13 -25 21 0 8 -7 15 -15 15 -9 0 -15 -9 -15 -25 0 -15 6
-25 14 -25 8 0 18 -4 21 -10 8 -14 -13 -50 -30 -50 -16 0 -17 -32 -3 -73 7
-18 14 -24 22 -19 23 19 75 22 88 6 7 -9 26 -29 42 -44 44 -44 31 -63 -39 -55
-54 7 -55 7 -55 -19 0 -14 -4 -26 -10 -26 -5 0 -10 5 -10 10 0 6 -4 10 -10 10
-5 0 -7 -7 -4 -15 4 -9 0 -15 -9 -15 -10 0 -17 11 -19 27 -4 34 -27 40 -81 22
-35 -11 -40 -11 -49 4 -5 9 -20 17 -33 17 -14 0 -26 6 -26 13 -1 6 -2 17 -4
22 -1 6 -3 14 -3 19 -1 5 -11 1 -22 -9 -11 -10 -29 -18 -40 -19 -11 0 -20 -4
-20 -8 0 -5 0 -12 0 -18 0 -5 11 -10 25 -10 29 0 33 -24 10 -54 -11 -14 -12
-23 -4 -33 16 -18 4 -43 -21 -43 -25 0 -37 25 -21 44 14 17 5 43 -21 57 -15 8
-18 17 -13 36 3 14 1 31 -6 39 -16 19 -4 42 26 54 39 15 20 33 -26 25 -34 -6
-39 -4 -39 13 0 24 41 53 90 63 81 18 115 29 118 38 6 19 22 12 32 -14 5 -14
17 -25 28 -25 10 0 23 -5 30 -12 9 -9 13 -7 18 6 4 11 -2 26 -16 41 -31 33
-23 61 18 57 28 -2 32 1 32 21 0 13 6 32 14 42 16 22 10 55 -10 55 -8 0 -14
-4 -14 -10 0 -5 -9 -10 -20 -10 -26 0 -38 29 -19 44 9 6 19 20 23 31 8 20 8
20 23 -2 9 -13 26 -23 38 -23 19 0 24 7 28 38 20 129 13 196 -20 198 -17 1
-20 -2 -14 -15 6 -10 2 -31 -11 -58 -16 -33 -26 -43 -44 -43 -17 0 -24 6 -24
19 0 21 38 54 52 45 4 -3 8 -1 8 5 0 14 -21 19 -58 13 -31 -4 -33 -3 -30 19 2
16 10 24 23 24 24 0 41 21 43 55 2 32 -30 55 -57 41 -10 -6 -21 -8 -24 -4 -11
10 -57 -7 -57 -22 0 -11 7 -14 24 -9 17 4 31 -1 45 -15 l21 -21 -29 -15 c-16
-8 -31 -19 -33 -25 -1 -5 -12 -7 -23 -4 -25 6 -66 79 -58 101 4 9 0 21 -8 27
-9 6 -18 19 -22 29 -4 11 -17 17 -35 17 -36 0 -57 24 -66 71 -7 41 3 50 47 42
21 -4 27 -1 28 13 3 44 -4 70 -23 91 -19 20 -19 23 -4 29 22 8 20 24 -3 24
-10 0 -21 7 -25 15 -6 16 -36 10 -36 -7 0 -13 -43 -47 -52 -41 -17 10 -7 40
17 53 14 7 25 17 25 21 0 10 -50 23 -77 20 -19 -2 -23 3 -23 24 0 21 -4 25
-19 20 -30 -9 -37 16 -11 37 18 15 21 21 11 31 -9 9 -16 7 -29 -10 -9 -12 -29
-25 -44 -28 -31 -8 -54 -31 -60 -60 -2 -11 -11 -21 -21 -23 -14 -3 -17 4 -17
48 0 48 1 51 30 57 28 5 44 33 19 33 -6 0 -17 7 -25 15 -21 21 -47 19 -62 -5z
m454 -576 c-1 -60 1 -68 21 -77 16 -7 23 -19 23 -39 0 -16 4 -37 10 -47 7 -14
4 -25 -13 -45 -31 -35 -48 -34 -41 4 5 25 3 30 -18 35 -13 3 -28 5 -34 4 -5
-1 -22 1 -37 6 -27 7 -27 8 -11 26 9 11 22 19 28 19 6 0 17 4 25 9 12 8 11 17
-9 58 -52 107 -51 113 15 113 l43 0 -2 -66z m263 -996 c44 -23 54 -53 24 -65
-27 -11 -52 -44 -59 -81 -3 -18 -17 -41 -30 -51 -15 -12 -20 -22 -14 -26 13
-8 13 -42 -1 -51 -6 -3 -18 1 -27 9 -13 13 -13 19 -2 31 7 9 8 16 3 16 -5 0
-18 6 -28 14 -19 14 -19 15 -1 35 11 12 24 21 30 21 10 0 36 44 36 61 0 4 -13
12 -30 18 -37 12 -38 27 -3 63 32 34 49 35 102 6z"/>
<path d="M5680 5521 c0 -22 -23 -43 -42 -40 -21 4 -92 -12 -106 -24 -7 -6 -19
-24 -26 -41 -11 -28 -8 -53 10 -84 1 -1 13 3 28 9 17 8 26 20 26 36 0 28 25
41 51 25 19 -12 35 0 24 18 -4 6 5 10 20 10 16 0 24 -4 19 -11 -4 -7 1 -10 12
-7 20 4 38 58 24 72 -6 6 -10 20 -10 33 0 14 -6 23 -15 23 -8 0 -15 -8 -15
-19z"/>
<path d="M8455 5264 c-17 -41 -14 -54 10 -34 12 10 16 9 22 -5 4 -12 -1 -24
-16 -37 -32 -25 -23 -67 14 -60 20 3 25 0 25 -17 0 -18 -5 -21 -27 -19 -25 3
-28 -1 -35 -42 -4 -25 -10 -55 -13 -68 -5 -21 -4 -22 17 -11 12 7 29 19 37 27
12 12 16 12 20 1 2 -7 -1 -15 -7 -17 -20 -6 -14 -49 7 -55 24 -6 47 18 53 56
5 25 1 31 -28 45 -36 17 -38 38 -8 73 8 8 14 21 14 28 0 6 11 16 25 21 23 9
24 11 11 42 -9 20 -23 34 -35 36 -12 2 -21 7 -21 12 0 5 -11 21 -24 35 l-25
27 -16 -38z"/>
<path d="M5206 4579 c-19 -15 -37 -20 -68 -17 -33 2 -43 -1 -43 -12 0 -8 7
-16 15 -16 8 -1 21 -2 28 -3 9 -1 10 -6 4 -18 -14 -27 -36 -143 -29 -150 4 -3
20 0 36 7 48 19 72 -7 26 -28 -26 -12 -33 -36 -15 -47 6 -4 29 -4 50 0 35 6
38 8 25 22 -18 17 -19 25 -3 41 8 8 8 15 -1 25 -9 11 -8 17 4 27 21 17 19 30
-4 30 -10 0 -22 7 -25 16 -3 8 -10 13 -16 9 -5 -3 -12 6 -16 21 -5 20 -2 31
12 41 10 7 26 19 34 26 9 7 24 16 33 20 9 3 17 11 17 17 0 17 -36 11 -64 -11z"/>
<path d="M5334 4483 c-4 -21 -11 -44 -17 -50 -7 -10 -1 -13 27 -13 29 0 37 -4
42 -24 3 -14 3 -29 0 -35 -12 -19 15 -23 29 -5 13 18 15 18 31 2 26 -25 11
-49 -26 -42 -27 6 -30 4 -30 -20 0 -26 13 -35 25 -16 3 6 17 10 29 10 18 0 25
7 31 33 5 17 7 39 6 47 -1 8 -2 23 -2 33 0 20 -4 21 -29 7 -22 -12 -46 11 -36
36 10 26 -21 74 -49 74 -20 0 -25 -6 -31 -37z"/>
<path d="M7500 3369 c0 -6 -11 -20 -24 -30 -14 -11 -28 -30 -32 -42 -4 -12
-18 -33 -33 -47 -29 -29 -56 -90 -39 -90 6 0 37 16 69 36 48 29 59 41 65 69 3
19 14 37 23 40 9 3 21 16 27 29 11 23 9 26 -19 35 -37 13 -37 13 -37 0z"/>
<path d="M3722 3822 c-43 -40 -62 -65 -62 -82 0 -13 -6 -31 -14 -39 -10 -11
-15 -55 -18 -148 -5 -130 2 -170 25 -156 7 4 26 8 44 9 37 1 55 17 70 64 l12
35 -6 -39 c-4 -24 -2 -37 4 -33 10 6 28 181 23 222 -1 11 -2 31 -1 45 6 101 5
174 -4 177 -6 2 -38 -23 -73 -55z"/>
<path d="M3532 3623 c-32 -43 -72 -94 -90 -113 -21 -22 -28 -36 -20 -38 7 -2
24 -17 38 -32 20 -22 36 -29 82 -33 51 -5 57 -4 62 16 10 37 7 265 -4 272 -5
3 -36 -29 -68 -72z"/>
</g>
</svg>
